<svg xmlns="http://www.w3.org/2000/svg" viewBox="0 0 200 60" fill="#6B4EFF">
  <path d="M10,40 L10,10 L50,10 L50,20 L20,20 L20,25 L45,25 L45,35 L20,35 L20,40 L50,40 L50,50 L10,50 Z" />
  <path d="M60,40 L60,10 L70,10 L70,40 L90,40 L90,50 L60,50 Z" />
  <path d="M100,40 L100,10 L140,10 L140,20 L110,20 L110,25 L135,25 L135,35 L110,35 L110,40 L140,40 L140,50 L100,50 Z" />
  <path d="M150,10 L170,10 L180,25 L190,10 L190,50 L180,50 L180,30 L170,45 L160,30 L160,50 L150,50 Z" />
  <path d="M150,40 L150,10 L170,10 L190,10 L190,20 L180,20 L180,40 L190,40 L190,50 L150,50 Z" />
  <!-- Up arrow symbolizing "Elevate" -->
  <path d="M95,5 L85,15 L90,15 L90,25 L100,25 L100,15 L105,15 Z" />
</svg> 