<svg xmlns="http://www.w3.org/2000/svg" viewBox="0 0 24 24" fill="#181717">
  <path d="M12 .5C5.37.5 0 5.78 0 12.292c0 5.211 3.438 9.63 8.205 11.188.6.111.82-.254.82-.567 0-.28-.01-1.022-.015-2-.3318.07-1.682.2-2.782.2-.53 0-1.6-.03-2.25-.33-.71-.33-1.21-1.03-1.71-1.93-.39-.7-.86-1.06-1.17-1.34-.29-.25-.35-.44-.01-.44.33-.01 1.14.69 1.3.93.76 1.29 1.57 1.65 2.58 1.65.69 0 1.29-.15 1.65-.33.13-.96.55-1.8 1-2.21-3.34-.38-6.85-1.62-6.85-7.21 0-1.6.57-2.9 1.5-3.91-.15-.37-.65-1.87.14-3.9 0 0 1.23-.39 4.01 1.5 1.17-.33 2.42-.5 3.67-.5 1.24 0 2.5.17 3.67.5 2.78-1.89 4.01-1.5 4.01-1.5.8 2.03.29 3.53.15 3.9.93 1.01 1.5 2.32 1.5 3.91 0 5.6-3.51 6.83-6.87 7.19.52.47.99 1.4.99 2.82 0 2.03-.02 3.67-.02 4.17 0 .32.22.69.83.57C20.565 21.917 24 17.495 24 12.292 24 5.78 18.627.5 12 .5z"/>
</svg> 